<svg width="512" height="512" viewBox="0 0 512 512" fill="none" xmlns="http://www.w3.org/2000/svg">
<rect width="512" height="512" fill="#F8F9FA"/>
<path d="M330.667 149.333C348.309 149.333 362.667 163.691 362.667 181.333V330.667C362.667 348.309 348.309 362.667 330.667 362.667H181.333C163.691 362.667 149.333 348.309 149.333 330.667V181.333C149.333 163.691 163.691 149.333 181.333 149.333H330.667ZM330.667 128H181.333C151.883 128 128 151.883 128 181.333V330.667C128 360.117 151.883 384 181.333 384H330.667C360.128 384 384 360.117 384 330.667V181.333C384 151.883 360.128 128 330.667 128ZM256 192C220.661 192 192 220.661 192 256C192 291.339 220.661 320 256 320C291.339 320 320 291.339 320 256C320 220.661 291.339 192 256 192ZM256 298.667C232.469 298.667 213.333 279.531 213.333 256C213.333 232.469 232.469 213.333 256 213.333C279.52 213.333 298.667 232.469 298.667 256C298.667 279.531 279.52 298.667 256 298.667ZM330.667 192C324.768 192 320 187.221 320 181.333C320 175.445 324.768 170.667 330.667 170.667C336.565 170.667 341.333 175.445 341.333 181.333C341.333 187.221 336.565 192 330.667 192Z" fill="#343A40"/>
</svg>
