<svg width="512" height="512" viewBox="0 0 512 512" fill="none" xmlns="http://www.w3.org/2000/svg">
<rect width="512" height="512" fill="#F8F9FA"/>
<path d="M256 149.333C285.408 149.333 309.333 173.259 309.333 202.677C309.333 232.075 285.408 256.011 256 256.011C226.592 256.011 202.667 232.075 202.667 202.677C202.667 173.259 226.592 149.333 256 149.333V149.333ZM256 128C214.763 128 181.333 161.429 181.333 202.677C181.333 243.904 214.763 277.344 256 277.344C297.237 277.344 330.667 243.904 330.667 202.677C330.667 161.429 297.237 128 256 128V128ZM323.936 270.432C318.635 275.744 312.661 280.363 306.251 284.32C336.885 304.309 352.949 338.539 359.285 362.677H152.491C158.592 338.251 174.443 303.979 205.536 284.192C199.104 280.203 193.141 275.541 187.851 270.197C142.432 302.965 128 360.928 128 384H384C384 361.152 368.64 303.392 323.936 270.432Z" fill="#343A40"/>
</svg>
